<?xml version="1.0" standalone="no"?>
<!DOCTYPE svg PUBLIC "-//W3C//DTD SVG 20010904//EN"
 "http://www.w3.org/TR/2001/REC-SVG-20010904/DTD/svg10.dtd">
<svg version="1.0" xmlns="http://www.w3.org/2000/svg"
 width="1024.000000pt" height="1024.000000pt" viewBox="0 0 1024.000000 1024.000000"
 preserveAspectRatio="xMidYMid meet">

<g transform="translate(0.000000,1024.000000) scale(0.100000,-0.100000)"
fill="#000000" stroke="none">
<path d="M0 5120 l0 -5120 5120 0 5120 0 0 5120 0 5120 -5120 0 -5120 0 0
-5120z m2150 4025 c28 -25 722 -1188 743 -1245 15 -38 -2 -91 -33 -107 -20
-10 -194 -12 -803 -10 l-779 2 -19 24 c-35 43 -25 76 72 241 50 85 145 247
211 360 158 269 374 633 410 691 15 25 38 51 51 57 33 17 123 9 147 -13z
m2661 -117 c33 -33 59 -70 59 -80 0 -11 -57 -80 -128 -156 -70 -75 -172 -186
-227 -247 -350 -386 -371 -404 -432 -371 -15 8 -104 91 -196 184 -133 134
-166 173 -161 188 4 10 34 47 68 82 85 87 99 86 202 -18 43 -45 87 -86 98 -91
16 -10 40 10 185 153 377 371 427 418 451 418 15 0 43 -21 81 -62z m-1361
-220 c23 -38 35 -101 23 -123 -5 -8 -65 -46 -134 -84 -68 -38 -123 -73 -122
-78 1 -4 53 -36 114 -71 62 -34 121 -69 131 -79 44 -39 1 -185 -50 -166 -50
19 -450 247 -465 266 -23 26 -17 82 10 108 10 10 95 61 188 115 94 53 188 108
210 121 53 31 72 29 95 -9z m1724 -37 c66 -38 173 -98 235 -133 101 -55 116
-67 123 -95 11 -42 -12 -100 -46 -112 -13 -6 -67 -35 -120 -65 -158 -91 -302
-166 -319 -166 -23 0 -35 28 -43 101 l-6 64 123 69 c68 37 128 72 132 76 5 4
-45 36 -110 70 -140 74 -153 85 -153 121 0 34 39 139 52 139 6 0 65 -31 132
-69z m2151 -185 c26 -74 49 -124 61 -131 10 -7 74 -23 142 -36 l122 -23 93 92
c51 51 98 92 105 92 36 0 247 -132 325 -204 l38 -34 -57 -111 -57 -112 19 -23
c10 -14 48 -62 83 -108 35 -45 68 -87 72 -92 4 -5 61 1 134 14 87 16 129 20
136 13 14 -14 85 -227 99 -300 20 -102 21 -101 -110 -148 l-115 -40 -6 -85
c-3 -47 -8 -92 -13 -101 -4 -9 -35 -30 -69 -45 -80 -37 -145 -38 -207 -4 -68
38 -86 72 -93 182 -20 301 -162 522 -412 643 -207 100 -404 100 -614 -2 -79
-37 -108 -59 -176 -127 -122 -123 -183 -255 -194 -419 l-6 -87 -55 72 c-81
108 -262 284 -370 360 -52 37 -106 75 -120 86 l-24 19 74 117 c70 110 157 222
185 238 7 5 57 -18 119 -54 121 -70 104 -71 227 14 41 29 97 65 122 80 l47 28
-6 140 -7 139 29 11 c87 34 300 69 393 66 l43 -1 43 -119z m-2010 -586 c376
-75 744 -269 1005 -530 391 -390 599 -931 560 -1460 -10 -141 -20 -195 -55
-327 -184 -677 -795 -1172 -1547 -1254 -247 -27 -565 7 -808 87 -124 41 -334
141 -440 209 -167 107 -381 303 -493 454 -412 552 -487 1262 -197 1868 172
362 482 656 870 829 167 73 317 114 555 148 17 2 122 3 235 1 163 -2 228 -7
315 -25z m-1811 -492 c-78 -87 -132 -158 -200 -258 -66 -99 -81 -115 -102
-112 -13 2 -58 -4 -100 -12 -42 -8 -185 -36 -317 -61 -132 -25 -252 -48 -267
-51 -35 -7 -41 -27 -28 -91 17 -79 28 -84 152 -61 57 10 188 33 293 52 104 19
192 33 193 31 2 -2 -10 -39 -26 -82 -56 -144 -104 -341 -118 -484 l-6 -67
-137 -27 c-75 -15 -142 -32 -150 -38 -9 -8 -11 -25 -6 -61 12 -96 19 -98 186
-67 l96 18 7 -60 c3 -33 6 -82 6 -108 0 -47 -1 -48 -37 -58 -21 -5 -60 -13
-87 -17 -27 -4 -57 -15 -67 -25 -16 -16 -16 -23 -4 -75 7 -31 19 -61 26 -66 8
-5 34 -6 59 -3 25 3 66 9 91 12 l46 5 27 -113 c37 -156 51 -196 113 -331 54
-120 129 -254 192 -343 128 -183 326 -376 516 -504 44 -30 84 -58 90 -63 5 -4
-221 -8 -502 -8 l-511 0 -31 93 c-17 50 -55 175 -85 277 -57 191 -186 619
-274 910 -28 91 -81 264 -117 385 -37 121 -92 301 -122 400 -30 99 -63 207
-73 240 -57 196 -121 406 -134 444 -17 45 -20 90 -10 127 7 25 -52 12 624 135
245 44 513 93 595 109 83 15 165 29 184 29 l34 1 -19 -22z m4388 -90 c12 -10
19 -47 28 -153 7 -77 14 -143 16 -146 2 -4 41 -22 86 -40 46 -18 114 -47 152
-65 l69 -33 101 68 c143 97 141 96 174 71 105 -82 292 -291 292 -327 0 -12
-19 -44 -42 -70 -24 -27 -65 -74 -91 -105 l-48 -56 29 -59 c16 -32 42 -94 57
-138 16 -44 32 -84 37 -90 5 -5 77 -14 161 -20 l152 -10 8 -45 c12 -57 12
-354 0 -400 l-9 -35 -149 -6 c-83 -4 -155 -7 -162 -8 -6 0 -17 -18 -24 -38 -7
-21 -32 -80 -56 -132 l-43 -94 62 -76 c34 -42 79 -97 100 -122 21 -25 38 -52
38 -60 0 -26 -321 -329 -348 -329 -7 0 -59 45 -116 101 l-105 101 -65 -26
c-35 -14 -104 -40 -153 -57 -48 -17 -93 -36 -99 -42 -6 -7 -16 -75 -22 -151
-7 -89 -15 -142 -23 -147 -21 -12 -251 -22 -358 -14 l-100 7 -6 32 c-3 17 -11
84 -19 149 -8 66 -18 123 -22 127 -5 5 -74 31 -153 59 l-144 50 -84 -79 c-46
-44 -87 -79 -91 -79 -4 1 -35 31 -68 68 l-62 66 64 130 c66 135 142 350 165
468 7 37 16 67 20 67 4 0 18 -17 30 -37 92 -149 249 -267 424 -319 82 -24 258
-24 340 0 140 41 289 141 370 246 195 253 195 574 0 838 -82 112 -229 213
-375 257 -30 9 -100 19 -156 22 -129 7 -224 -13 -342 -72 -104 -52 -186 -123
-252 -216 l-47 -69 -7 60 c-16 143 -115 445 -197 604 l-48 94 22 19 c12 11 37
29 55 39 l34 19 92 -100 93 -99 89 37 c49 20 121 46 159 58 39 11 75 26 82 32
9 9 53 242 53 280 0 4 94 7 208 7 151 0 213 -3 224 -12z m-5906 -493 c12 -38
44 -140 69 -225 26 -85 77 -254 115 -375 37 -121 86 -281 108 -355 23 -74 92
-304 155 -510 63 -206 161 -528 217 -715 57 -187 105 -346 108 -353 3 -10 -32
-12 -168 -10 l-173 3 -14 40 c-8 22 -57 182 -109 355 -52 173 -105 349 -119
390 -13 41 -60 197 -105 345 -113 373 -141 465 -225 735 -151 485 -187 610
-181 634 13 51 36 64 156 90 63 13 121 23 129 22 8 0 24 -30 37 -71z m4751
-2102 c35 -38 63 -73 63 -79 0 -6 -51 -53 -112 -105 -62 -51 -151 -125 -198
-164 -134 -111 -178 -145 -187 -145 -5 0 -40 31 -78 70 -61 61 -68 72 -55 84
42 41 486 406 495 406 5 0 38 -30 72 -67z m243 -260 c36 -40 60 -74 58 -85 -3
-16 -482 -408 -498 -408 -12 0 -132 140 -128 149 3 11 490 409 500 410 3 1 34
-29 68 -66z m1829 -227 c31 -18 79 -46 107 -61 48 -25 52 -30 52 -65 0 -21 6
-47 13 -57 10 -16 55 -43 81 -47 3 0 10 -4 14 -8 4 -4 16 -5 28 -3 25 6 59
-13 38 -22 -6 -2 -10 -9 -6 -14 3 -5 0 -9 -5 -9 -6 0 -11 -7 -11 -15 0 -21
-32 -35 -97 -40 -32 -3 -60 -10 -61 -16 -3 -6 -9 -6 -18 2 -11 9 -14 8 -14 -2
0 -10 -3 -11 -8 -3 -10 16 -77 33 -101 27 -11 -3 -19 -12 -18 -21 0 -10 -3
-29 -6 -44 -5 -19 -3 -28 4 -28 8 0 8 -4 2 -12 -6 -7 -13 -25 -17 -40 -6 -27
-23 -34 -63 -29 -10 1 -13 -20 -13 -81 0 -56 3 -78 10 -68 5 8 6 26 3 39 -4
17 -2 22 6 17 6 -4 11 -1 11 8 0 9 5 16 10 16 6 0 10 5 10 10 0 6 12 22 26 35
19 17 33 22 57 19 18 -2 43 -6 57 -8 37 -5 61 -17 54 -28 -3 -5 -12 -7 -20 -4
-8 3 -14 1 -14 -4 0 -14 31 -28 51 -23 11 3 19 0 19 -6 0 -5 7 -8 15 -5 8 4
15 13 15 21 0 13 10 15 51 11 28 -3 54 -10 58 -15 8 -13 54 -38 64 -35 4 1 7
-6 8 -15 1 -12 4 -10 9 7 6 19 8 10 9 -35 3 -116 2 -891 0 -1020 l-3 -130 -6
95 -6 95 -3 -75 c-3 -71 -17 -156 -20 -117 -2 31 -25 13 -34 -26 -5 -20 -12
-37 -15 -37 -21 0 -72 43 -78 65 -3 14 -9 25 -13 25 -4 0 -8 15 -9 33 -3 42
-28 66 -72 69 -19 2 -38 7 -42 13 -4 5 -10 2 -14 -8 -3 -9 -14 -17 -24 -17
-37 0 -50 -12 -50 -46 0 -23 -5 -34 -14 -34 -8 0 -16 -5 -18 -12 -2 -6 -18
-11 -35 -10 -36 1 -53 -27 -53 -88 0 -36 2 -40 26 -40 14 0 32 -7 40 -15 9 -8
13 -15 9 -15 -4 0 0 -7 9 -15 17 -18 141 -21 151 -5 4 6 16 8 28 4 21 -6 21
-6 3 8 -21 16 -7 34 19 24 8 -3 17 -1 20 4 4 6 46 10 94 10 l88 0 -1 -32 c-1
-18 -5 -39 -9 -45 -5 -7 -4 -13 2 -13 13 0 25 45 17 58 -3 5 0 14 7 20 10 8
13 5 15 -11 4 -52 -26 -75 -272 -203 -131 -68 -242 -124 -247 -124 -12 0 -12
617 0 625 6 3 13 -1 18 -9 6 -10 13 -12 23 -6 12 7 14 28 13 90 -2 45 -7 89
-12 98 -10 16 -10 16 -12 0 -4 -42 -19 -79 -30 -73 -5 4 -9 319 -9 791 l0 784
26 0 c15 0 52 -15 83 -34z m286 -164 c-3 -3 -11 0 -18 7 -9 10 -8 11 6 5 10
-3 15 -9 12 -12z m63 -27 c2 -1 -8 -2 -21 -2 -13 0 -24 5 -24 13 0 10 5 10 21
2 12 -6 22 -12 24 -13z m67 -63 c8 -21 3 -22 -17 -2 -14 13 -15 17 -3 17 8 0
17 -7 20 -15z m-7645 -472 l0 -430 248 -2 247 -3 0 -130 0 -130 -410 0 -410 0
-3 563 -2 562 165 0 165 0 0 -430z m988 -132 l-3 -563 -162 -3 -163 -2 0 565
0 565 165 0 165 0 -2 -562z m612 492 c30 -38 141 -174 245 -304 l190 -235 3
304 2 305 160 0 160 0 0 -565 0 -566 -127 3 -128 3 -209 250 c-114 138 -235
283 -267 323 l-59 73 -2 -323 -3 -323 -154 -3 c-117 -2 -156 1 -163 10 -9 15
-11 1003 -2 1072 l7 46 146 0 146 -1 55 -69z m1930 -65 l0 -135 -175 0 -175 0
-2 -427 -3 -428 -150 0 -150 0 -1 400 c0 220 -1 412 -2 428 l-2 27 -175 0
-175 0 0 135 0 135 505 0 505 0 0 -135z m2042 -96 c-18 -5 -30 -14 -27 -19 4
-6 -7 -18 -24 -28 -32 -18 -51 -45 -25 -35 16 6 20 -22 4 -32 -8 -5 -7 -11 1
-21 8 -9 8 -14 1 -14 -7 0 -6 -12 3 -35 8 -19 16 -50 17 -69 2 -19 6 -32 11
-29 4 2 7 -7 7 -22 0 -14 -7 -28 -15 -31 -13 -5 -12 -9 5 -24 11 -10 19 -23
18 -28 -2 -6 22 -34 52 -62 44 -42 41 -40 -17 10 -40 34 -70 67 -66 73 3 6 1
7 -6 3 -7 -5 -35 13 -71 44 -69 59 -89 104 -70 151 15 34 79 91 93 82 6 -3 7
-2 4 4 -6 10 43 62 78 81 11 6 29 11 40 11 12 -1 7 -5 -13 -10z m509 -866 c13
-16 12 -17 -3 -4 -17 13 -22 21 -14 21 2 0 10 -8 17 -17z m-5918 -483 c98
-252 167 -432 167 -437 0 -2 -37 -3 -81 -1 l-82 3 -20 58 -21 57 -122 0 -122
0 -22 -60 -22 -60 -79 0 c-44 0 -79 1 -79 3 0 5 133 362 186 500 l46 118 91
-3 92 -3 68 -175z m650 146 c60 -29 102 -75 135 -146 24 -54 22 -202 -5 -261
-30 -66 -85 -123 -146 -150 -48 -21 -66 -23 -217 -24 l-165 0 2 295 c2 162 3
301 3 308 0 11 33 13 168 10 160 -3 169 -4 225 -32z m432 -189 c40 -119 74
-219 76 -222 3 -2 37 97 77 221 l72 224 80 0 c44 0 80 -1 80 -3 0 -5 -34 -100
-129 -361 -50 -137 -91 -251 -91 -253 0 -2 -39 -2 -87 -1 l-87 3 -81 220 c-44
121 -95 260 -113 308 l-32 88 82 -3 82 -3 71 -218z"/>
<path d="M1969 8829 c-19 -19 -21 -29 -15 -93 3 -39 11 -168 17 -286 9 -165
15 -219 27 -232 11 -14 31 -18 79 -18 100 0 97 -7 112 281 6 134 14 261 17
283 3 25 -1 47 -11 62 -14 22 -22 24 -110 24 -83 0 -98 -3 -116 -21z"/>
<path d="M1990 8130 c-16 -16 -20 -33 -20 -83 0 -83 16 -99 103 -104 53 -4 67
-1 90 17 24 19 27 28 27 84 0 89 -18 106 -110 106 -57 0 -74 -4 -90 -20z"/>
<path d="M4850 7853 c-157 -11 -363 -57 -510 -114 -156 -60 -348 -179 -495
-308 -229 -200 -413 -527 -469 -832 -68 -369 -24 -703 137 -1039 128 -268 368
-535 620 -689 184 -113 382 -191 598 -238 111 -24 146 -26 334 -27 177 -1 230
3 333 21 268 49 533 168 743 333 279 220 467 527 539 879 62 307 17 678 -120
981 -232 518 -692 886 -1248 1001 -90 18 -324 41 -387 37 -16 -1 -50 -3 -75
-5z m421 -192 c396 -80 757 -313 993 -644 58 -82 159 -275 195 -374 65 -177
97 -424 80 -623 -27 -327 -150 -592 -379 -820 -363 -362 -894 -511 -1419 -398
-555 119 -1002 519 -1166 1043 -48 154 -65 264 -65 430 0 296 74 545 234 789
132 199 352 382 594 493 121 55 329 110 482 127 83 10 359 -5 451 -23z"/>
<path d="M4670 7149 c-74 -16 -191 -41 -260 -55 -69 -15 -131 -32 -138 -39
-10 -9 -10 -23 2 -72 7 -34 17 -66 21 -72 12 -20 6 -21 434 68 80 17 151 36
158 43 10 11 10 25 -3 78 -22 93 -15 92 -214 49z"/>
<path d="M5803 7079 c-18 -5 -40 -21 -49 -34 -21 -32 -234 -509 -329 -735 -78
-187 -82 -213 -42 -258 40 -44 57 -43 553 19 l469 59 28 30 c43 47 37 91 -21
181 -50 76 -258 378 -399 579 -114 162 -138 180 -210 159z m131 -248 c15 -16
18 -50 23 -235 l6 -215 -27 -11 c-41 -15 -71 -12 -90 9 -11 12 -28 84 -51 221
-32 187 -34 205 -19 221 29 32 132 38 158 10z m40 -523 c21 -29 20 -77 -1
-100 -21 -23 -95 -25 -117 -2 -9 9 -16 32 -16 54 0 51 21 70 75 70 34 0 47 -5
59 -22z"/>
<path d="M3930 6996 l-105 -22 -53 -98 c-29 -54 -51 -100 -49 -103 5 -4 307
56 391 78 38 10 39 11 32 52 -3 23 -10 59 -16 80 -11 35 -13 37 -53 36 -23 -1
-89 -11 -147 -23z"/>
<path d="M3875 6596 c-176 -36 -200 -43 -203 -61 -5 -33 24 -128 42 -140 20
-12 433 69 454 89 12 11 12 24 1 72 -7 33 -17 65 -22 72 -14 18 -54 14 -272
-32z"/>
<path d="M4712 6361 c-139 -30 -217 -52 -222 -61 -12 -22 12 -130 31 -140 14
-8 156 17 432 77 37 8 40 16 32 80 -6 50 -31 94 -52 92 -5 0 -104 -22 -221
-48z"/>
<path d="M4255 6273 c-11 -2 -154 -33 -319 -68 -164 -35 -302 -67 -307 -72
-10 -10 8 -144 21 -157 7 -7 57 0 143 18 72 15 231 48 352 73 121 25 223 50
228 56 8 13 2 61 -16 116 -11 32 -16 36 -47 38 -19 0 -44 -1 -55 -4z"/>
<path d="M5079 6028 c-39 -27 -74 -92 -205 -388 -47 -107 -113 -255 -147 -329
-70 -156 -75 -196 -32 -241 15 -16 40 -34 56 -41 33 -13 35 -13 519 51 162 21
334 43 382 49 104 12 140 29 162 75 34 72 28 83 -141 292 -284 352 -431 521
-466 538 -48 22 -88 20 -128 -6z m32 -64 c-31 -22 -13 -38 42 -40 28 -1 44 4
47 13 7 17 129 -119 273 -302 47 -60 114 -144 148 -185 121 -148 139 -172 139
-189 0 -37 -32 -49 -175 -66 -139 -16 -532 -66 -673 -85 -140 -19 -182 -11
-182 33 0 19 12 48 137 332 111 251 214 468 231 488 8 9 20 17 26 17 6 0 0 -7
-13 -16z"/>
<path d="M5112 5879 c-18 -6 -35 -16 -38 -24 -3 -8 5 -74 19 -147 14 -73 31
-167 37 -208 7 -41 19 -83 28 -92 19 -23 80 -23 110 -2 23 16 23 19 18 143
-12 253 -18 316 -28 328 -12 15 -97 16 -146 2z"/>
<path d="M5206 5360 c-36 -11 -46 -25 -46 -67 0 -51 32 -77 88 -70 57 6 76 28
67 77 -4 19 -12 40 -18 47 -17 17 -58 23 -91 13z"/>
<path d="M4075 5823 c-143 -30 -266 -61 -273 -68 -12 -11 -12 -23 0 -76 19
-86 31 -90 186 -61 261 50 418 86 432 98 12 12 12 23 1 76 -13 65 -30 89 -65
87 -12 0 -138 -25 -281 -56z"/>
<path d="M4010 5396 l-45 -13 79 -77 c43 -42 83 -75 90 -73 14 5 11 129 -4
157 -12 23 -50 25 -120 6z"/>
<path d="M8818 3726 c-23 -17 -25 -61 -3 -52 10 3 15 -1 16 -12 0 -10 3 -12 6
-4 2 6 9 10 14 6 8 -5 13 9 10 29 -2 14 17 7 23 -9 4 -9 9 -14 12 -11 9 9 -16
48 -27 41 -6 -3 -16 1 -22 10 -10 13 -15 13 -29 2z"/>
<path d="M9201 3494 c0 -11 3 -14 6 -6 3 7 2 16 -1 19 -3 4 -6 -2 -5 -13z"/>
<path d="M9203 3385 c0 -38 2 -53 4 -32 2 20 2 52 0 70 -2 17 -4 1 -4 -38z"/>
<path d="M9182 2660 c0 -19 2 -27 5 -17 2 9 2 25 0 35 -3 9 -5 1 -5 -18z"/>
<path d="M1572 2463 c-16 -43 -62 -187 -62 -196 0 -4 34 -7 75 -7 41 0 75 4
75 8 0 10 -68 214 -74 219 -2 2 -8 -9 -14 -24z"/>
<path d="M2150 2330 l0 -180 69 0 c118 0 171 56 171 183 0 77 -14 112 -60 151
-28 23 -40 26 -106 26 l-74 0 0 -180z"/>
</g>
</svg>
