<?xml version="1.0" standalone="no"?>
<!DOCTYPE svg PUBLIC "-//W3C//DTD SVG 20010904//EN"
 "http://www.w3.org/TR/2001/REC-SVG-20010904/DTD/svg10.dtd">
<svg version="1.0" xmlns="http://www.w3.org/2000/svg"
 width="1024.000000pt" height="1024.000000pt" viewBox="0 0 1024.000000 1024.000000"
 preserveAspectRatio="xMidYMid meet">

<g transform="translate(0.000000,1024.000000) scale(0.100000,-0.100000)"
fill="#000000" stroke="none">
<path d="M3726 7782 c-15 -30 -171 -436 -444 -1157 -94 -247 -259 -684 -367
-970 -219 -579 -459 -1219 -469 -1251 -4 -12 -1 -26 7 -32 11 -10 683 -102
742 -102 27 0 15 -32 180 495 59 187 160 509 225 715 65 206 166 528 225 715
146 466 410 1298 434 1367 15 44 17 59 7 67 -14 12 -494 181 -513 181 -7 0
-19 -13 -27 -28z"/>
<path d="M2379 7317 c-57 -35 -176 -109 -264 -164 -299 -186 -1169 -725 -1380
-855 -317 -196 -345 -216 -388 -278 -70 -103 -72 -243 -5 -345 53 -80 40 -72
903 -555 748 -418 904 -501 931 -498 23 3 45 36 167 247 104 180 138 248 131
259 -12 18 -60 46 -714 414 -283 160 -518 293 -522 297 -3 3 251 167 565 363
999 625 1052 658 1070 680 17 20 17 22 0 49 -25 38 -289 376 -327 417 -16 17
-37 32 -47 32 -9 0 -63 -29 -120 -63z"/>
<path d="M4808 7353 c-35 -37 -292 -389 -315 -430 -13 -25 -14 -34 -4 -46 10
-13 371 -230 471 -283 33 -18 71 -19 653 -22 340 -1 617 1 617 6 0 9 -61 45
-815 487 -552 324 -536 315 -561 315 -11 0 -32 -12 -46 -27z"/>
<path d="M4892 6469 c-161 -31 -291 -164 -325 -331 l-13 -63 -159 -6 c-88 -4
-174 -11 -190 -16 -111 -37 -215 -128 -263 -230 l-27 -58 0 -405 c0 -401 0
-406 23 -463 27 -66 111 -163 175 -200 77 -45 138 -57 299 -57 l148 0 0 -42
c0 -71 27 -175 61 -239 58 -108 186 -204 307 -230 30 -6 498 -8 1297 -7 l1250
3 57 23 c112 45 202 156 228 279 7 31 10 347 8 918 -3 863 -3 870 -24 922 -30
73 -74 124 -134 157 -107 58 -47 56 -1415 55 -693 -1 -1279 -5 -1303 -10z
m768 -283 c0 -2 -78 -134 -173 -292 -95 -159 -267 -448 -382 -641 -116 -194
-212 -353 -215 -353 -3 0 -3 262 0 582 5 560 6 584 25 617 26 44 64 72 112 81
39 8 633 13 633 6z m850 -2 c0 -3 -165 -285 -367 -627 -201 -342 -422 -718
-491 -834 l-125 -213 -209 0 c-114 0 -208 4 -208 8 0 4 4 12 9 18 5 5 54 88
109 184 55 96 184 324 287 505 103 182 260 458 347 615 88 157 169 300 180
318 l20 32 224 0 c123 0 224 -3 224 -6z m836 -10 c-3 -9 -71 -127 -150 -262
-185 -318 -338 -582 -496 -857 -69 -121 -168 -293 -220 -382 l-94 -163 -204 0
-204 0 25 43 c52 88 610 1082 736 1312 73 132 144 259 157 283 l25 42 215 0
c193 0 215 -2 210 -16z m224 -1534 c-6 -25 -23 -57 -38 -73 -48 -50 -96 -57
-414 -57 -158 0 -288 3 -288 6 0 3 8 18 19 32 32 47 598 1063 697 1252 l29 55
3 -585 c2 -401 -1 -599 -8 -630z m-3020 734 l0 -386 -100 4 c-81 3 -105 8
-127 24 -51 38 -53 48 -53 354 0 251 2 289 18 320 26 52 70 70 175 70 l87 0 0
-386z"/>
<path d="M9245 5880 c-415 -103 -716 -137 -1122 -126 l-243 7 0 -376 0 -377
128 8 c204 14 530 9 692 -10 155 -19 246 -35 515 -91 244 -50 353 -47 483 17
231 114 335 384 247 640 -46 134 -155 250 -286 305 -54 22 -82 27 -179 29
-101 3 -130 0 -235 -26z m255 -302 c63 -33 102 -86 108 -146 12 -130 -74 -218
-203 -210 -100 6 -168 67 -181 160 -21 152 139 265 276 196z"/>
</g>
</svg>
